<svg width="828" height="1800" viewBox="0 0 828 1800" fill="none" xmlns="http://www.w3.org/2000/svg">
<rect width="828" height="1792" fill="black"/>
<path d="M37.0938 606V559.938H46.625V577.5H64.625V559.938H74.1875V606H64.625V585.438H46.625V606H37.0938ZM101.469 589.438C100.906 589.792 100.333 590.083 99.75 590.312C99.1875 590.521 98.4062 590.719 97.4062 590.906L95.4062 591.281C93.5312 591.615 92.1875 592.021 91.375 592.5C90 593.312 89.3125 594.573 89.3125 596.281C89.3125 597.802 89.7292 598.906 90.5625 599.594C91.4167 600.26 92.4479 600.594 93.6562 600.594C95.5729 600.594 97.3333 600.031 98.9375 598.906C100.562 597.781 101.406 595.729 101.469 592.75V589.438ZM96.0625 585.281C97.7083 585.073 98.8854 584.812 99.5938 584.5C100.865 583.958 101.5 583.115 101.5 581.969C101.5 580.573 101.01 579.615 100.031 579.094C99.0729 578.552 97.6562 578.281 95.7812 578.281C93.6771 578.281 92.1875 578.802 91.3125 579.844C90.6875 580.615 90.2708 581.656 90.0625 582.969H81.4688C81.6562 579.99 82.4896 577.542 83.9688 575.625C86.3229 572.625 90.3646 571.125 96.0938 571.125C99.8229 571.125 103.135 571.865 106.031 573.344C108.927 574.823 110.375 577.615 110.375 581.719V597.344C110.375 598.427 110.396 599.74 110.438 601.281C110.5 602.448 110.677 603.24 110.969 603.656C111.26 604.073 111.698 604.417 112.281 604.688V606H102.594C102.323 605.312 102.135 604.667 102.031 604.062C101.927 603.458 101.844 602.771 101.781 602C100.552 603.333 99.1354 604.469 97.5312 605.406C95.6146 606.51 93.4479 607.062 91.0312 607.062C87.9479 607.062 85.3958 606.188 83.375 604.438C81.375 602.667 80.375 600.167 80.375 596.938C80.375 592.75 81.9896 589.719 85.2188 587.844C86.9896 586.823 89.5938 586.094 93.0312 585.656L96.0625 585.281ZM139.312 571.938H148.875L136.594 606H127.188L114.969 571.938H124.969L132.062 597.062L139.312 571.938ZM167.375 578.375C165.312 578.375 163.708 579.021 162.562 580.312C161.438 581.604 160.729 583.354 160.438 585.562H174.281C174.135 583.208 173.417 581.427 172.125 580.219C170.854 578.99 169.271 578.375 167.375 578.375ZM167.375 571.031C170.208 571.031 172.76 571.562 175.031 572.625C177.302 573.688 179.177 575.365 180.656 577.656C181.99 579.677 182.854 582.021 183.25 584.688C183.479 586.25 183.573 588.5 183.531 591.438H160.219C160.344 594.854 161.417 597.25 163.438 598.625C164.667 599.479 166.146 599.906 167.875 599.906C169.708 599.906 171.198 599.385 172.344 598.344C172.969 597.781 173.521 597 174 596H183.094C182.865 598.021 181.812 600.073 179.938 602.156C177.021 605.469 172.938 607.125 167.688 607.125C163.354 607.125 159.531 605.729 156.219 602.938C152.906 600.146 151.25 595.604 151.25 589.312C151.25 583.417 152.74 578.896 155.719 575.75C158.719 572.604 162.604 571.031 167.375 571.031ZM226.156 589.438C225.594 589.792 225.021 590.083 224.438 590.312C223.875 590.521 223.094 590.719 222.094 590.906L220.094 591.281C218.219 591.615 216.875 592.021 216.062 592.5C214.688 593.312 214 594.573 214 596.281C214 597.802 214.417 598.906 215.25 599.594C216.104 600.26 217.135 600.594 218.344 600.594C220.26 600.594 222.021 600.031 223.625 598.906C225.25 597.781 226.094 595.729 226.156 592.75V589.438ZM220.75 585.281C222.396 585.073 223.573 584.812 224.281 584.5C225.552 583.958 226.188 583.115 226.188 581.969C226.188 580.573 225.698 579.615 224.719 579.094C223.76 578.552 222.344 578.281 220.469 578.281C218.365 578.281 216.875 578.802 216 579.844C215.375 580.615 214.958 581.656 214.75 582.969H206.156C206.344 579.99 207.177 577.542 208.656 575.625C211.01 572.625 215.052 571.125 220.781 571.125C224.51 571.125 227.823 571.865 230.719 573.344C233.615 574.823 235.062 577.615 235.062 581.719V597.344C235.062 598.427 235.083 599.74 235.125 601.281C235.188 602.448 235.365 603.24 235.656 603.656C235.948 604.073 236.385 604.417 236.969 604.688V606H227.281C227.01 605.312 226.823 604.667 226.719 604.062C226.615 603.458 226.531 602.771 226.469 602C225.24 603.333 223.823 604.469 222.219 605.406C220.302 606.51 218.135 607.062 215.719 607.062C212.635 607.062 210.083 606.188 208.062 604.438C206.062 602.667 205.062 600.167 205.062 596.938C205.062 592.75 206.677 589.719 209.906 587.844C211.677 586.823 214.281 586.094 217.719 585.656L220.75 585.281ZM270.875 567.938V578.094H282.188C284.208 578.094 285.844 577.719 287.094 576.969C288.365 576.198 289 574.844 289 572.906C289 570.76 288.167 569.344 286.5 568.656C285.062 568.177 283.229 567.938 281 567.938H270.875ZM270.875 585.719V598H282.188C284.208 598 285.781 597.729 286.906 597.188C288.948 596.188 289.969 594.271 289.969 591.438C289.969 589.042 288.979 587.396 287 586.5C285.896 586 284.344 585.74 282.344 585.719H270.875ZM284.062 559.938C289.708 560.021 293.708 561.656 296.062 564.844C297.479 566.802 298.188 569.146 298.188 571.875C298.188 574.688 297.479 576.948 296.062 578.656C295.271 579.615 294.104 580.49 292.562 581.281C294.917 582.135 296.688 583.49 297.875 585.344C299.083 587.198 299.688 589.448 299.688 592.094C299.688 594.823 299 597.271 297.625 599.438C296.75 600.875 295.656 602.083 294.344 603.062C292.865 604.188 291.115 604.958 289.094 605.375C287.094 605.792 284.917 606 282.562 606H261.688V559.938H284.062ZM325.562 571.125C325.729 571.125 325.865 571.135 325.969 571.156C326.094 571.156 326.354 571.167 326.75 571.188V580.312C326.188 580.25 325.688 580.208 325.25 580.188C324.812 580.167 324.458 580.156 324.188 580.156C320.604 580.156 318.198 581.323 316.969 583.656C316.281 584.969 315.938 586.99 315.938 589.719V606H306.969V571.938H315.469V577.875C316.844 575.604 318.042 574.052 319.062 573.219C320.729 571.823 322.896 571.125 325.562 571.125ZM345.438 578.375C343.375 578.375 341.771 579.021 340.625 580.312C339.5 581.604 338.792 583.354 338.5 585.562H352.344C352.198 583.208 351.479 581.427 350.188 580.219C348.917 578.99 347.333 578.375 345.438 578.375ZM345.438 571.031C348.271 571.031 350.823 571.562 353.094 572.625C355.365 573.688 357.24 575.365 358.719 577.656C360.052 579.677 360.917 582.021 361.312 584.688C361.542 586.25 361.635 588.5 361.594 591.438H338.281C338.406 594.854 339.479 597.25 341.5 598.625C342.729 599.479 344.208 599.906 345.938 599.906C347.771 599.906 349.26 599.385 350.406 598.344C351.031 597.781 351.583 597 352.062 596H361.156C360.927 598.021 359.875 600.073 358 602.156C355.083 605.469 351 607.125 345.75 607.125C341.417 607.125 337.594 605.729 334.281 602.938C330.969 600.146 329.312 595.604 329.312 589.312C329.312 583.417 330.802 578.896 333.781 575.75C336.781 572.604 340.667 571.031 345.438 571.031ZM386.406 589.438C385.844 589.792 385.271 590.083 384.688 590.312C384.125 590.521 383.344 590.719 382.344 590.906L380.344 591.281C378.469 591.615 377.125 592.021 376.312 592.5C374.938 593.312 374.25 594.573 374.25 596.281C374.25 597.802 374.667 598.906 375.5 599.594C376.354 600.26 377.385 600.594 378.594 600.594C380.51 600.594 382.271 600.031 383.875 598.906C385.5 597.781 386.344 595.729 386.406 592.75V589.438ZM381 585.281C382.646 585.073 383.823 584.812 384.531 584.5C385.802 583.958 386.438 583.115 386.438 581.969C386.438 580.573 385.948 579.615 384.969 579.094C384.01 578.552 382.594 578.281 380.719 578.281C378.615 578.281 377.125 578.802 376.25 579.844C375.625 580.615 375.208 581.656 375 582.969H366.406C366.594 579.99 367.427 577.542 368.906 575.625C371.26 572.625 375.302 571.125 381.031 571.125C384.76 571.125 388.073 571.865 390.969 573.344C393.865 574.823 395.312 577.615 395.312 581.719V597.344C395.312 598.427 395.333 599.74 395.375 601.281C395.438 602.448 395.615 603.24 395.906 603.656C396.198 604.073 396.635 604.417 397.219 604.688V606H387.531C387.26 605.312 387.073 604.667 386.969 604.062C386.865 603.458 386.781 602.771 386.719 602C385.49 603.333 384.073 604.469 382.469 605.406C380.552 606.51 378.385 607.062 375.969 607.062C372.885 607.062 370.333 606.188 368.312 604.438C366.312 602.667 365.312 600.167 365.312 596.938C365.312 592.75 366.927 589.719 370.156 587.844C371.927 586.823 374.531 586.094 377.969 585.656L381 585.281ZM403.156 560.094H411.906V584.906L423 572.094H434.031L422.125 585.125L434.5 606H423.75L415.594 591.438L411.906 595.281V606H403.156V560.094Z" fill="white"/>
<path d="M89.625 679.906V692.141H68.9531V749H54.4219V692.141H33.6562V679.906H89.625ZM118.078 724.156C117.234 724.688 116.375 725.125 115.5 725.469C114.656 725.781 113.484 726.078 111.984 726.359L108.984 726.922C106.172 727.422 104.156 728.031 102.938 728.75C100.875 729.969 99.8438 731.859 99.8438 734.422C99.8438 736.703 100.469 738.359 101.719 739.391C103 740.391 104.547 740.891 106.359 740.891C109.234 740.891 111.875 740.047 114.281 738.359C116.719 736.672 117.984 733.594 118.078 729.125V724.156ZM109.969 717.922C112.438 717.609 114.203 717.219 115.266 716.75C117.172 715.938 118.125 714.672 118.125 712.953C118.125 710.859 117.391 709.422 115.922 708.641C114.484 707.828 112.359 707.422 109.547 707.422C106.391 707.422 104.156 708.203 102.844 709.766C101.906 710.922 101.281 712.484 100.969 714.453H88.0781C88.3594 709.984 89.6094 706.312 91.8281 703.438C95.3594 698.938 101.422 696.688 110.016 696.688C115.609 696.688 120.578 697.797 124.922 700.016C129.266 702.234 131.438 706.422 131.438 712.578V736.016C131.438 737.641 131.469 739.609 131.531 741.922C131.625 743.672 131.891 744.859 132.328 745.484C132.766 746.109 133.422 746.625 134.297 747.031V749H119.766C119.359 747.969 119.078 747 118.922 746.094C118.766 745.188 118.641 744.156 118.547 743C116.703 745 114.578 746.703 112.172 748.109C109.297 749.766 106.047 750.594 102.422 750.594C97.7969 750.594 93.9688 749.281 90.9375 746.656C87.9375 744 86.4375 740.25 86.4375 735.406C86.4375 729.125 88.8594 724.578 93.7031 721.766C96.3594 720.234 100.266 719.141 105.422 718.484L109.969 717.922ZM143.203 680.141H156.328V717.359L172.969 698.141H189.516L171.656 717.688L190.219 749H174.094L161.859 727.156L156.328 732.922V749H143.203V680.141ZM216.938 707.562C213.844 707.562 211.438 708.531 209.719 710.469C208.031 712.406 206.969 715.031 206.531 718.344H227.297C227.078 714.812 226 712.141 224.062 710.328C222.156 708.484 219.781 707.562 216.938 707.562ZM216.938 696.547C221.188 696.547 225.016 697.344 228.422 698.938C231.828 700.531 234.641 703.047 236.859 706.484C238.859 709.516 240.156 713.031 240.75 717.031C241.094 719.375 241.234 722.75 241.172 727.156H206.203C206.391 732.281 208 735.875 211.031 737.938C212.875 739.219 215.094 739.859 217.688 739.859C220.438 739.859 222.672 739.078 224.391 737.516C225.328 736.672 226.156 735.5 226.875 734H240.516C240.172 737.031 238.594 740.109 235.781 743.234C231.406 748.203 225.281 750.688 217.406 750.688C210.906 750.688 205.172 748.594 200.203 744.406C195.234 740.219 192.75 733.406 192.75 723.969C192.75 715.125 194.984 708.344 199.453 703.625C203.953 698.906 209.781 696.547 216.938 696.547ZM305.109 724.156C304.266 724.688 303.406 725.125 302.531 725.469C301.688 725.781 300.516 726.078 299.016 726.359L296.016 726.922C293.203 727.422 291.188 728.031 289.969 728.75C287.906 729.969 286.875 731.859 286.875 734.422C286.875 736.703 287.5 738.359 288.75 739.391C290.031 740.391 291.578 740.891 293.391 740.891C296.266 740.891 298.906 740.047 301.312 738.359C303.75 736.672 305.016 733.594 305.109 729.125V724.156ZM297 717.922C299.469 717.609 301.234 717.219 302.297 716.75C304.203 715.938 305.156 714.672 305.156 712.953C305.156 710.859 304.422 709.422 302.953 708.641C301.516 707.828 299.391 707.422 296.578 707.422C293.422 707.422 291.188 708.203 289.875 709.766C288.938 710.922 288.312 712.484 288 714.453H275.109C275.391 709.984 276.641 706.312 278.859 703.438C282.391 698.938 288.453 696.688 297.047 696.688C302.641 696.688 307.609 697.797 311.953 700.016C316.297 702.234 318.469 706.422 318.469 712.578V736.016C318.469 737.641 318.5 739.609 318.562 741.922C318.656 743.672 318.922 744.859 319.359 745.484C319.797 746.109 320.453 746.625 321.328 747.031V749H306.797C306.391 747.969 306.109 747 305.953 746.094C305.797 745.188 305.672 744.156 305.578 743C303.734 745 301.609 746.703 299.203 748.109C296.328 749.766 293.078 750.594 289.453 750.594C284.828 750.594 281 749.281 277.969 746.656C274.969 744 273.469 740.25 273.469 735.406C273.469 729.125 275.891 724.578 280.734 721.766C283.391 720.234 287.297 719.141 292.453 718.484L297 717.922ZM397.078 701.891C397.078 698.297 396.125 695.734 394.219 694.203C392.344 692.672 389.703 691.906 386.297 691.906H372.844V712.25H386.297C389.703 712.25 392.344 711.422 394.219 709.766C396.125 708.109 397.078 705.484 397.078 701.891ZM411.375 701.797C411.375 709.953 409.312 715.719 405.188 719.094C401.062 722.469 395.172 724.156 387.516 724.156H372.844V749H358.5V679.906H388.594C395.531 679.906 401.062 681.688 405.188 685.25C409.312 688.812 411.375 694.328 411.375 701.797ZM449.297 724.156C448.453 724.688 447.594 725.125 446.719 725.469C445.875 725.781 444.703 726.078 443.203 726.359L440.203 726.922C437.391 727.422 435.375 728.031 434.156 728.75C432.094 729.969 431.062 731.859 431.062 734.422C431.062 736.703 431.688 738.359 432.938 739.391C434.219 740.391 435.766 740.891 437.578 740.891C440.453 740.891 443.094 740.047 445.5 738.359C447.938 736.672 449.203 733.594 449.297 729.125V724.156ZM441.188 717.922C443.656 717.609 445.422 717.219 446.484 716.75C448.391 715.938 449.344 714.672 449.344 712.953C449.344 710.859 448.609 709.422 447.141 708.641C445.703 707.828 443.578 707.422 440.766 707.422C437.609 707.422 435.375 708.203 434.062 709.766C433.125 710.922 432.5 712.484 432.188 714.453H419.297C419.578 709.984 420.828 706.312 423.047 703.438C426.578 698.938 432.641 696.688 441.234 696.688C446.828 696.688 451.797 697.797 456.141 700.016C460.484 702.234 462.656 706.422 462.656 712.578V736.016C462.656 737.641 462.688 739.609 462.75 741.922C462.844 743.672 463.109 744.859 463.547 745.484C463.984 746.109 464.641 746.625 465.516 747.031V749H450.984C450.578 747.969 450.297 747 450.141 746.094C449.984 745.188 449.859 744.156 449.766 743C447.922 745 445.797 746.703 443.391 748.109C440.516 749.766 437.266 750.594 433.641 750.594C429.016 750.594 425.188 749.281 422.156 746.656C419.156 744 417.656 740.25 417.656 735.406C417.656 729.125 420.078 724.578 424.922 721.766C427.578 720.234 431.484 719.141 436.641 718.484L441.188 717.922ZM487.875 697.906V728.703C487.875 731.609 488.219 733.797 488.906 735.266C490.125 737.859 492.516 739.156 496.078 739.156C500.641 739.156 503.766 737.312 505.453 733.625C506.328 731.625 506.766 728.984 506.766 725.703V697.906H520.312V749H507.328V741.781C507.203 741.938 506.891 742.406 506.391 743.188C505.891 743.969 505.297 744.656 504.609 745.25C502.516 747.125 500.484 748.406 498.516 749.094C496.578 749.781 494.297 750.125 491.672 750.125C484.109 750.125 479.016 747.406 476.391 741.969C474.922 738.969 474.188 734.547 474.188 728.703V697.906H487.875ZM543.656 732.688C543.938 735.062 544.547 736.75 545.484 737.75C547.141 739.531 550.203 740.422 554.672 740.422C557.297 740.422 559.375 740.031 560.906 739.25C562.469 738.469 563.25 737.297 563.25 735.734C563.25 734.234 562.625 733.094 561.375 732.312C560.125 731.531 555.484 730.188 547.453 728.281C541.672 726.844 537.594 725.047 535.219 722.891C532.844 720.766 531.656 717.703 531.656 713.703C531.656 708.984 533.5 704.938 537.188 701.562C540.906 698.156 546.125 696.453 552.844 696.453C559.219 696.453 564.406 697.734 568.406 700.297C572.438 702.828 574.75 707.219 575.344 713.469H561.984C561.797 711.75 561.312 710.391 560.531 709.391C559.062 707.578 556.562 706.672 553.031 706.672C550.125 706.672 548.047 707.125 546.797 708.031C545.578 708.938 544.969 710 544.969 711.219C544.969 712.75 545.625 713.859 546.938 714.547C548.25 715.266 552.891 716.5 560.859 718.25C566.172 719.5 570.156 721.391 572.812 723.922C575.438 726.484 576.75 729.688 576.75 733.531C576.75 738.594 574.859 742.734 571.078 745.953C567.328 749.141 561.516 750.734 553.641 750.734C545.609 750.734 539.672 749.047 535.828 745.672C532.016 742.266 530.109 737.938 530.109 732.688H543.656ZM606.844 707.562C603.75 707.562 601.344 708.531 599.625 710.469C597.938 712.406 596.875 715.031 596.438 718.344H617.203C616.984 714.812 615.906 712.141 613.969 710.328C612.062 708.484 609.688 707.562 606.844 707.562ZM606.844 696.547C611.094 696.547 614.922 697.344 618.328 698.938C621.734 700.531 624.547 703.047 626.766 706.484C628.766 709.516 630.062 713.031 630.656 717.031C631 719.375 631.141 722.75 631.078 727.156H596.109C596.297 732.281 597.906 735.875 600.938 737.938C602.781 739.219 605 739.859 607.594 739.859C610.344 739.859 612.578 739.078 614.297 737.516C615.234 736.672 616.062 735.5 616.781 734H630.422C630.078 737.031 628.5 740.109 625.688 743.234C621.312 748.203 615.188 750.688 607.312 750.688C600.812 750.688 595.078 748.594 590.109 744.406C585.141 740.219 582.656 733.406 582.656 723.969C582.656 715.125 584.891 708.344 589.359 703.625C593.859 698.906 599.688 696.547 606.844 696.547Z" fill="white"/>
<path d="M92.9551 843.771H54.8691V859.055H89.8301V871.555H54.8691V890.061H94.7129V903H40.1719V831.027H92.9551V843.771ZM134.801 848.508C140.302 848.508 144.794 849.956 148.277 852.854C151.793 855.718 153.551 860.487 153.551 867.16V903H139.293V870.627C139.293 867.827 138.919 865.679 138.17 864.182C136.803 861.447 134.199 860.08 130.357 860.08C125.637 860.08 122.398 862.082 120.641 866.086C119.729 868.202 119.273 870.904 119.273 874.191V903H105.406V849.875H118.834V857.639C120.624 854.904 122.317 852.935 123.912 851.73C126.777 849.582 130.406 848.508 134.801 848.508ZM180.992 843.43H167.076V830.588H180.992V843.43ZM160.387 913.205C161.168 913.27 161.721 913.303 162.047 913.303C162.372 913.335 162.665 913.352 162.926 913.352C164.293 913.352 165.318 913.01 166.002 912.326C166.718 911.675 167.076 910.389 167.076 908.469V850.021H180.992V908.713C180.992 914.084 179.934 918.055 177.818 920.627C175.702 923.199 171.552 924.484 165.367 924.484C164.944 924.484 164.309 924.468 163.463 924.436C162.649 924.403 161.624 924.37 160.387 924.338V913.205ZM218.15 893.186C222.219 893.186 225.344 891.737 227.525 888.84C229.706 885.943 230.797 881.825 230.797 876.486C230.797 871.148 229.706 867.046 227.525 864.182C225.344 861.285 222.219 859.836 218.15 859.836C214.081 859.836 210.94 861.285 208.727 864.182C206.546 867.046 205.455 871.148 205.455 876.486C205.455 881.825 206.546 885.943 208.727 888.84C210.94 891.737 214.081 893.186 218.15 893.186ZM245.396 876.486C245.396 884.299 243.15 890.988 238.658 896.555C234.166 902.089 227.346 904.855 218.199 904.855C209.052 904.855 202.232 902.089 197.74 896.555C193.248 890.988 191.002 884.299 191.002 876.486C191.002 868.804 193.248 862.147 197.74 856.516C202.232 850.884 209.052 848.068 218.199 848.068C227.346 848.068 234.166 850.884 238.658 856.516C243.15 862.147 245.396 868.804 245.396 876.486ZM257.555 913.205L259.312 913.303C260.68 913.368 261.982 913.319 263.219 913.156C264.456 912.993 265.497 912.619 266.344 912.033C267.158 911.48 267.906 910.324 268.59 908.566C269.306 906.809 269.599 905.734 269.469 905.344L249.938 849.777H265.416L277.037 889.035L288.023 849.777H302.818L284.557 902.121C281.041 912.212 278.258 918.462 276.207 920.871C274.156 923.312 270.055 924.533 263.902 924.533C262.665 924.533 261.673 924.517 260.924 924.484C260.175 924.484 259.052 924.436 257.555 924.338V913.205ZM379.332 831.027H396.373L372.301 875.949V903H357.262V875.949L332.359 831.027H350.084L365.025 862.375L379.332 831.027ZM420.299 893.186C424.368 893.186 427.493 891.737 429.674 888.84C431.855 885.943 432.945 881.825 432.945 876.486C432.945 871.148 431.855 867.046 429.674 864.182C427.493 861.285 424.368 859.836 420.299 859.836C416.23 859.836 413.089 861.285 410.875 864.182C408.694 867.046 407.604 871.148 407.604 876.486C407.604 881.825 408.694 885.943 410.875 888.84C413.089 891.737 416.23 893.186 420.299 893.186ZM447.545 876.486C447.545 884.299 445.299 890.988 440.807 896.555C436.314 902.089 429.495 904.855 420.348 904.855C411.201 904.855 404.381 902.089 399.889 896.555C395.396 890.988 393.15 884.299 393.15 876.486C393.15 868.804 395.396 862.147 399.889 856.516C404.381 850.884 411.201 848.068 420.348 848.068C429.495 848.068 436.314 850.884 440.807 856.516C445.299 862.147 447.545 868.804 447.545 876.486ZM471.422 849.777V881.857C471.422 884.885 471.78 887.163 472.496 888.693C473.766 891.395 476.256 892.746 479.967 892.746C484.719 892.746 487.975 890.826 489.732 886.984C490.644 884.901 491.1 882.15 491.1 878.732V849.777H505.211V903H491.686V895.48C491.555 895.643 491.23 896.132 490.709 896.945C490.188 897.759 489.57 898.475 488.854 899.094C486.673 901.047 484.557 902.382 482.506 903.098C480.488 903.814 478.111 904.172 475.377 904.172C467.499 904.172 462.193 901.34 459.459 895.676C457.929 892.551 457.164 887.945 457.164 881.857V849.777H471.422ZM547.594 848.508C547.854 848.508 548.066 848.524 548.229 848.557C548.424 848.557 548.831 848.573 549.449 848.605V862.863C548.57 862.766 547.789 862.701 547.105 862.668C546.422 862.635 545.868 862.619 545.445 862.619C539.846 862.619 536.087 864.442 534.166 868.088C533.092 870.139 532.555 873.296 532.555 877.561V903H518.541V849.777H531.822V859.055C533.971 855.507 535.842 853.081 537.438 851.779C540.042 849.598 543.427 848.508 547.594 848.508ZM601.646 843.527V862.863H618.688C622.073 862.863 624.612 862.473 626.305 861.691C629.299 860.324 630.797 857.622 630.797 853.586C630.797 849.224 629.348 846.294 626.451 844.797C624.824 843.951 622.382 843.527 619.127 843.527H601.646ZM622.252 831.027C627.298 831.125 631.171 831.743 633.873 832.883C636.607 834.022 638.919 835.699 640.807 837.912C642.369 839.735 643.606 841.753 644.518 843.967C645.429 846.18 645.885 848.703 645.885 851.535C645.885 854.953 645.022 858.322 643.297 861.643C641.572 864.93 638.723 867.258 634.752 868.625C638.072 869.96 640.416 871.864 641.783 874.338C643.183 876.779 643.883 880.523 643.883 885.568V890.402C643.883 893.69 644.013 895.92 644.273 897.092C644.664 898.947 645.576 900.314 647.008 901.193V903H630.455C629.999 901.405 629.674 900.119 629.479 899.143C629.088 897.124 628.876 895.057 628.844 892.941L628.746 886.252C628.681 881.662 627.835 878.602 626.207 877.072C624.612 875.542 621.601 874.777 617.174 874.777H601.646V903H586.949V831.027H622.252ZM678.746 859.836C675.523 859.836 673.017 860.845 671.227 862.863C669.469 864.882 668.362 867.616 667.906 871.066H689.537C689.309 867.388 688.186 864.605 686.168 862.717C684.182 860.796 681.708 859.836 678.746 859.836ZM678.746 848.361C683.173 848.361 687.161 849.191 690.709 850.852C694.257 852.512 697.187 855.132 699.498 858.713C701.581 861.87 702.932 865.533 703.551 869.699C703.909 872.141 704.055 875.656 703.99 880.246H667.564C667.76 885.585 669.436 889.328 672.594 891.477C674.514 892.811 676.826 893.479 679.527 893.479C682.392 893.479 684.719 892.665 686.51 891.037C687.486 890.158 688.349 888.938 689.098 887.375H703.307C702.949 890.533 701.305 893.739 698.375 896.994C693.818 902.17 687.438 904.758 679.234 904.758C672.464 904.758 666.49 902.577 661.314 898.215C656.139 893.853 653.551 886.757 653.551 876.926C653.551 867.714 655.878 860.65 660.533 855.734C665.221 850.819 671.292 848.361 678.746 848.361ZM724.254 886.008C724.547 888.482 725.182 890.24 726.158 891.281C727.883 893.137 731.074 894.064 735.729 894.064C738.463 894.064 740.628 893.658 742.223 892.844C743.85 892.03 744.664 890.809 744.664 889.182C744.664 887.619 744.013 886.431 742.711 885.617C741.409 884.803 736.575 883.404 728.209 881.418C722.187 879.921 717.939 878.049 715.465 875.803C712.991 873.589 711.754 870.399 711.754 866.232C711.754 861.317 713.674 857.102 717.516 853.586C721.389 850.038 726.826 848.264 733.824 848.264C740.465 848.264 745.868 849.598 750.035 852.268C754.234 854.904 756.643 859.478 757.262 865.988H743.346C743.15 864.198 742.646 862.782 741.832 861.74C740.302 859.852 737.698 858.908 734.02 858.908C730.992 858.908 728.827 859.38 727.525 860.324C726.256 861.268 725.621 862.375 725.621 863.645C725.621 865.24 726.305 866.395 727.672 867.111C729.039 867.86 733.873 869.146 742.174 870.969C747.708 872.271 751.858 874.24 754.625 876.877C757.359 879.546 758.727 882.883 758.727 886.887C758.727 892.16 756.757 896.473 752.818 899.826C748.912 903.146 742.857 904.807 734.654 904.807C726.288 904.807 720.104 903.049 716.1 899.533C712.128 895.985 710.143 891.477 710.143 886.008H724.254ZM763.609 860.178V850.266H771.031V835.422H784.801V850.266H793.443V860.178H784.801V888.303C784.801 890.484 785.077 891.851 785.631 892.404C786.184 892.925 787.877 893.186 790.709 893.186C791.132 893.186 791.572 893.186 792.027 893.186C792.516 893.153 792.988 893.12 793.443 893.088V903.488L786.852 903.732C780.276 903.96 775.784 902.821 773.375 900.314C771.812 898.719 771.031 896.262 771.031 892.941V860.178H763.609Z" fill="white"/>
<rect x="313" y="1408" width="202" height="193.99" stroke="black"/>
<path d="M391.305 1475.26C384.239 1466.13 380.363 1453.18 380.363 1438.83C380.363 1417.7 394.641 1408 414.03 1408C434.23 1408 447.697 1417.7 447.697 1438.83C447.697 1453.21 443.579 1466.17 436.994 1475.26L419.058 1503.61C417.207 1506.54 410.869 1506.53 409.027 1503.6L391.305 1475.26Z" fill="white"/>
<path d="M377.951 1515.76C366.724 1519.39 352.705 1518.93 338.493 1514.49C317.565 1507.96 312.371 1491.93 318.363 1474.22C324.605 1455.77 338.372 1446.47 359.3 1453C373.541 1457.44 385.1 1465.2 392.07 1474.03L414.603 1499.17C416.928 1501.77 414.965 1507.55 411.497 1508.33L377.951 1515.76Z" fill="white"/>
<path d="M414.308 1543C414.435 1554.37 409.647 1567.03 400.863 1578.64C387.929 1595.74 370.441 1595.53 354.755 1584.58C338.413 1573.18 333.455 1557.73 346.39 1540.64C355.191 1529 366.452 1520.84 377.345 1517.21L409.207 1504.39C412.495 1503.07 417.62 1506.65 417.318 1510.06L414.308 1543Z" fill="white"/>
<path d="M451.489 1516.59C462.794 1519.99 473.854 1528.27 482.638 1539.88C495.572 1556.98 489.958 1572.89 474.272 1583.83C457.93 1595.23 441.098 1594.99 428.164 1577.89C419.363 1566.26 414.764 1553.45 414.526 1542.38L411.685 1509.32C411.391 1505.91 416.522 1502.33 419.804 1503.66L451.489 1516.59Z" fill="white"/>
<path d="M436.629 1474.37C443.489 1465.09 455.113 1457.55 469.325 1453.12C490.253 1446.59 504.271 1456.63 510.262 1474.34C516.505 1492.79 511.06 1508.09 490.132 1514.62C475.891 1519.06 461.788 1519.3 450.748 1516.1L417.13 1508.48C413.66 1507.69 411.706 1501.9 414.037 1499.32L436.629 1474.37Z" fill="white"/>
<g style="mix-blend-mode:multiply">
<ellipse cx="10.2564" cy="9.93281" rx="10.2564" ry="9.93281" transform="matrix(-0.950575 -0.310495 -0.333851 0.942626 427.065 1498.82)" fill="black"/>
</g>
<path d="M414 1523.46C425.825 1523.46 435.462 1514.42 435.462 1503.2C435.462 1491.98 425.825 1482.94 414 1482.94C402.175 1482.94 392.538 1491.98 392.538 1503.2C392.538 1514.42 402.175 1523.46 414 1523.46Z" fill="black" stroke="black"/>
<path d="M0 0H828V212H0V106V0Z" fill="black"/>
<rect x="37" y="87" width="755.933" height="85.8667" rx="23" fill="#262626"/>
<path d="M97.6433 137.543L106.7 146.6M101.75 127.625C101.75 130.398 100.928 133.11 99.3866 135.416C97.8455 137.723 95.6551 139.52 93.0924 140.582C90.5296 141.644 87.7097 141.921 84.9891 141.38C82.2685 140.839 79.7695 139.503 77.808 137.542C75.8466 135.58 74.5108 133.081 73.9697 130.361C73.4285 127.64 73.7063 124.82 74.7678 122.257C75.8293 119.695 77.6269 117.504 79.9333 115.963C82.2397 114.422 84.9513 113.6 87.7252 113.6C91.4449 113.6 95.0122 115.077 97.6424 117.707C100.273 120.338 101.75 123.905 101.75 127.625Z" stroke="#505050" stroke-width="4.6" stroke-linecap="round" stroke-linejoin="round"/>
<path d="M154.839 135.483C154.923 136.98 155.276 138.196 155.899 139.13C157.085 140.879 159.176 141.754 162.171 141.754C163.512 141.754 164.734 141.562 165.836 141.179C167.968 140.436 169.035 139.107 169.035 137.19C169.035 135.752 168.585 134.728 167.687 134.117C166.776 133.518 165.351 132.997 163.41 132.554L159.835 131.745C157.499 131.218 155.846 130.637 154.875 130.002C153.198 128.9 152.36 127.253 152.36 125.061C152.36 122.689 153.18 120.742 154.821 119.221C156.462 117.7 158.786 116.939 161.793 116.939C164.56 116.939 166.908 117.61 168.837 118.952C170.778 120.281 171.748 122.414 171.748 125.348H168.388C168.208 123.935 167.825 122.851 167.238 122.096C166.148 120.718 164.297 120.03 161.685 120.03C159.577 120.03 158.062 120.473 157.139 121.359C156.217 122.246 155.756 123.276 155.756 124.45C155.756 125.744 156.295 126.69 157.373 127.289C158.08 127.672 159.679 128.152 162.171 128.727L165.872 129.571C167.657 129.978 169.035 130.535 170.005 131.242C171.682 132.476 172.521 134.267 172.521 136.615C172.521 139.538 171.454 141.628 169.322 142.886C167.202 144.144 164.734 144.773 161.919 144.773C158.637 144.773 156.067 143.934 154.21 142.257C152.354 140.592 151.443 138.334 151.479 135.483H154.839ZM184.631 124.324C185.997 124.324 187.321 124.648 188.603 125.295C189.884 125.929 190.861 126.756 191.531 127.774C192.178 128.745 192.61 129.877 192.825 131.17C193.017 132.057 193.113 133.47 193.113 135.411H179.007C179.067 137.364 179.528 138.933 180.391 140.119C181.253 141.293 182.589 141.88 184.398 141.88C186.087 141.88 187.435 141.323 188.441 140.209C189.016 139.562 189.423 138.813 189.663 137.963H192.843C192.759 138.669 192.478 139.46 191.999 140.334C191.531 141.197 191.004 141.904 190.417 142.455C189.435 143.413 188.219 144.06 186.77 144.395C185.991 144.587 185.111 144.683 184.128 144.683C181.732 144.683 179.702 143.814 178.037 142.077C176.372 140.328 175.539 137.885 175.539 134.746C175.539 131.655 176.378 129.146 178.055 127.217C179.732 125.289 181.924 124.324 184.631 124.324ZM189.788 132.841C189.657 131.44 189.351 130.32 188.872 129.481C187.986 127.924 186.506 127.145 184.434 127.145C182.948 127.145 181.703 127.684 180.696 128.763C179.69 129.829 179.157 131.188 179.097 132.841H189.788ZM199.581 138.879C199.581 139.813 199.923 140.55 200.606 141.089C201.288 141.628 202.097 141.898 203.031 141.898C204.169 141.898 205.272 141.634 206.338 141.107C208.135 140.233 209.033 138.801 209.033 136.813V134.207C208.638 134.459 208.129 134.668 207.506 134.836C206.883 135.004 206.272 135.123 205.673 135.195L203.714 135.447C202.54 135.603 201.66 135.848 201.073 136.184C200.079 136.747 199.581 137.645 199.581 138.879ZM207.416 132.338C208.159 132.242 208.656 131.931 208.907 131.404C209.051 131.116 209.123 130.703 209.123 130.164C209.123 129.062 208.728 128.265 207.937 127.774C207.158 127.271 206.038 127.02 204.577 127.02C202.888 127.02 201.69 127.475 200.983 128.385C200.588 128.888 200.33 129.637 200.21 130.631H197.192C197.251 128.259 198.018 126.612 199.492 125.69C200.977 124.755 202.696 124.288 204.649 124.288C206.913 124.288 208.751 124.72 210.165 125.582C211.567 126.445 212.267 127.786 212.267 129.607V140.694C212.267 141.029 212.333 141.299 212.465 141.502C212.609 141.706 212.902 141.808 213.346 141.808C213.489 141.808 213.651 141.802 213.831 141.79C214.01 141.766 214.202 141.736 214.406 141.7V144.09C213.903 144.234 213.519 144.323 213.256 144.359C212.992 144.395 212.633 144.413 212.178 144.413C211.063 144.413 210.255 144.018 209.752 143.227C209.488 142.808 209.303 142.215 209.195 141.448C208.536 142.311 207.59 143.06 206.356 143.695C205.122 144.329 203.762 144.647 202.277 144.647C200.492 144.647 199.03 144.108 197.892 143.03C196.766 141.94 196.203 140.58 196.203 138.951C196.203 137.166 196.76 135.782 197.874 134.8C198.988 133.818 200.45 133.213 202.259 132.985L207.416 132.338ZM217.676 124.755H220.749V128.08C221 127.433 221.617 126.648 222.599 125.726C223.582 124.791 224.714 124.324 225.996 124.324C226.055 124.324 226.157 124.33 226.301 124.342C226.445 124.354 226.69 124.378 227.038 124.414V127.828C226.846 127.792 226.666 127.768 226.499 127.756C226.343 127.744 226.169 127.738 225.978 127.738C224.348 127.738 223.097 128.265 222.222 129.32C221.348 130.362 220.91 131.566 220.91 132.931V144H217.676V124.755ZM237.262 124.198C239.43 124.198 241.191 124.726 242.545 125.78C243.91 126.834 244.731 128.649 245.006 131.224H241.862C241.67 130.038 241.233 129.056 240.55 128.277C239.867 127.487 238.771 127.091 237.262 127.091C235.202 127.091 233.728 128.098 232.842 130.11C232.267 131.416 231.979 133.027 231.979 134.944C231.979 136.872 232.386 138.496 233.201 139.813C234.016 141.131 235.297 141.79 237.046 141.79C238.388 141.79 239.448 141.383 240.227 140.568C241.017 139.741 241.562 138.615 241.862 137.19H245.006C244.647 139.741 243.749 141.61 242.311 142.796C240.874 143.97 239.035 144.557 236.795 144.557C234.279 144.557 232.273 143.641 230.775 141.808C229.278 139.963 228.529 137.663 228.529 134.908C228.529 131.53 229.35 128.9 230.991 127.02C232.632 125.139 234.722 124.198 237.262 124.198ZM248.241 117.514H251.475V127.361C252.242 126.391 252.931 125.708 253.542 125.313C254.584 124.63 255.884 124.288 257.441 124.288C260.232 124.288 262.125 125.265 263.119 127.217C263.658 128.283 263.928 129.763 263.928 131.655V144H260.603V131.871C260.603 130.458 260.424 129.421 260.064 128.763C259.477 127.708 258.375 127.181 256.758 127.181C255.416 127.181 254.2 127.642 253.11 128.565C252.02 129.487 251.475 131.23 251.475 133.794V144H248.241V117.514Z" fill="#A7A7A7"/>
<path d="M228.516 1504.88L237.53 1506.62L239.065 1498.67C239.37 1497.1 239.417 1495.88 239.205 1495.02C238.837 1493.5 237.713 1492.56 235.831 1492.19C233.797 1491.8 232.301 1492.21 231.342 1493.43C230.801 1494.11 230.384 1495.21 230.09 1496.73L228.516 1504.88ZM224.544 1494.14C225.044 1491.8 225.682 1490.05 226.456 1488.89C227.234 1487.72 228.223 1486.8 229.425 1486.11C230.416 1485.55 231.468 1485.16 232.582 1484.93C233.696 1484.7 234.913 1484.72 236.234 1484.97C237.827 1485.28 239.32 1485.99 240.713 1487.09C242.09 1488.19 242.919 1489.73 243.198 1491.7C244.119 1490.28 245.218 1489.36 246.495 1488.94C247.759 1488.51 249.567 1488.52 251.92 1488.97L254.173 1489.41C255.706 1489.7 256.757 1489.84 257.327 1489.83C258.227 1489.81 258.947 1489.51 259.485 1488.92L260.328 1489.09L258.837 1496.8C258.052 1496.87 257.423 1496.91 256.95 1496.91C255.974 1496.91 254.992 1496.82 254.002 1496.65L250.875 1496.09C248.729 1495.71 247.226 1495.83 246.367 1496.45C245.51 1497.05 244.882 1498.39 244.483 1500.45L243.084 1507.69L256.242 1510.23L254.918 1517.09L221.364 1510.6L224.544 1494.14Z" fill="white"/>
<path d="M248.827 1462.68C248.217 1464.09 248.181 1465.37 248.721 1466.53C249.267 1467.68 250.248 1468.68 251.664 1469.53L255.76 1460.11C254.115 1459.51 252.691 1459.47 251.486 1460C250.274 1460.5 249.388 1461.39 248.827 1462.68ZM243.83 1460.51C244.669 1458.58 245.785 1457 247.18 1455.77C248.575 1454.54 250.27 1453.76 252.267 1453.43C254.036 1453.12 255.887 1453.23 257.818 1453.75C258.949 1454.06 260.508 1454.66 262.494 1455.56L255.597 1471.42C257.958 1472.34 259.906 1472.32 261.439 1471.35C262.384 1470.77 263.112 1469.89 263.624 1468.71C264.166 1467.47 264.252 1466.3 263.883 1465.21C263.685 1464.62 263.317 1464.01 262.778 1463.39L265.469 1457.2C266.776 1457.96 267.861 1459.28 268.723 1461.17C270.114 1464.14 270.033 1467.4 268.48 1470.98C267.197 1473.92 265.117 1476.11 262.237 1477.54C259.358 1478.97 255.778 1478.75 251.497 1476.89C247.486 1475.14 244.851 1472.79 243.592 1469.84C242.339 1466.86 242.419 1463.76 243.83 1460.51Z" fill="white"/>
<path d="M253.21 1425.5C253.436 1425.15 253.654 1424.84 253.864 1424.57C254.061 1424.29 254.338 1423.92 254.694 1423.45L259.218 1426.36C258.978 1426.65 258.614 1427.16 258.124 1427.89C257.63 1428.6 257.466 1429.21 257.633 1429.73C257.796 1430.22 258.085 1430.6 258.501 1430.86C258.917 1431.13 259.515 1431.52 260.295 1432.02L262.64 1428.37L266.559 1430.89L264.214 1434.54L281.353 1445.56L277.791 1451.1L260.652 1440.08L258.657 1443.18L254.738 1440.66L256.695 1437.61L255.33 1436.74C253.055 1435.27 251.735 1433.88 251.371 1432.56C250.615 1430.94 251.228 1428.58 253.21 1425.5Z" fill="white"/>
<path d="M277.954 1408.07C278.035 1407.97 278.106 1407.9 278.168 1407.85C278.228 1407.78 278.36 1407.64 278.563 1407.43L283.703 1411.84C283.396 1412.12 283.131 1412.38 282.908 1412.62C282.685 1412.86 282.508 1413.05 282.377 1413.2C280.647 1415.22 280.142 1417.14 280.863 1418.96C281.27 1419.98 282.242 1421.15 283.78 1422.47L292.95 1430.33L288.619 1435.38L269.434 1418.93L273.538 1414.15L276.882 1417.01C276.267 1415.14 275.971 1413.72 275.995 1412.74C276.014 1411.13 276.667 1409.57 277.954 1408.07Z" fill="white"/>
<path d="M298.703 1396.01C297.524 1396.98 296.913 1398.11 296.869 1399.39C296.838 1400.66 297.261 1402 298.139 1403.4L306.05 1396.85C304.853 1395.57 303.6 1394.89 302.29 1394.82C300.982 1394.71 299.786 1395.11 298.703 1396.01ZM295.229 1391.81C296.848 1390.47 298.558 1389.57 300.358 1389.1C302.159 1388.63 304.023 1388.7 305.953 1389.31C307.671 1389.84 309.274 1390.77 310.762 1392.11C311.632 1392.89 312.75 1394.13 314.116 1395.83L300.793 1406.86C302.481 1408.75 304.228 1409.61 306.033 1409.44C307.14 1409.35 308.187 1408.89 309.175 1408.08C310.223 1407.21 310.828 1406.21 310.99 1405.07C311.081 1404.45 311.027 1403.74 310.828 1402.95L316.024 1398.64C316.85 1399.91 317.219 1401.58 317.133 1403.66C317.034 1406.93 315.484 1409.81 312.483 1412.29C310.007 1414.34 307.162 1415.35 303.948 1415.32C300.734 1415.3 297.639 1413.48 294.662 1409.89C291.873 1406.52 290.585 1403.23 290.8 1400.02C291.026 1396.81 292.502 1394.07 295.229 1391.81Z" fill="white"/>
<path d="M329.23 1389.64C329.912 1390.61 330.574 1391.2 331.218 1391.42C332.358 1391.8 333.899 1391.47 335.843 1390.41C336.984 1389.79 337.796 1389.13 338.278 1388.43C338.773 1387.73 338.837 1387.03 338.468 1386.35C338.115 1385.7 337.575 1385.35 336.847 1385.31C336.119 1385.26 333.784 1385.77 329.843 1386.83C326.99 1387.57 324.793 1387.75 323.252 1387.37C321.719 1387.01 320.481 1385.96 319.538 1384.22C318.426 1382.16 318.275 1379.97 319.083 1377.63C319.898 1375.28 321.766 1373.31 324.688 1371.72C327.46 1370.22 330.018 1369.56 332.361 1369.73C334.711 1369.88 336.751 1371.24 338.482 1373.82L332.672 1376.97C332.185 1376.26 331.654 1375.79 331.079 1375.54C330.013 1375.1 328.713 1375.29 327.177 1376.12C325.913 1376.81 325.116 1377.49 324.786 1378.18C324.47 1378.86 324.455 1379.47 324.742 1380C325.103 1380.66 325.65 1380.99 326.382 1380.98C327.123 1380.99 329.431 1380.43 333.309 1379.31C335.914 1378.6 338.092 1378.49 339.844 1378.96C341.589 1379.46 342.915 1380.54 343.82 1382.21C345.013 1384.42 345.166 1386.66 344.28 1388.95C343.401 1391.22 341.249 1393.28 337.824 1395.14C334.331 1397.03 331.352 1397.7 328.885 1397.14C326.424 1396.55 324.576 1395.12 323.339 1392.84L329.23 1389.64Z" fill="white"/>
<path d="M362.005 1356.4C363.499 1355.95 364.932 1355.81 366.301 1355.96C367.686 1356.11 368.93 1356.6 370.036 1357.42C370.973 1358.13 371.661 1358.94 372.099 1359.85C372.532 1360.76 373.074 1362.29 373.724 1364.45L378.002 1378.66L371.542 1380.6L367.11 1365.88C366.718 1364.58 366.18 1363.6 365.495 1362.93C364.579 1361.98 363.315 1361.75 361.702 1362.23C360.029 1362.74 358.926 1363.68 358.391 1365.07C357.867 1366.44 357.917 1368.16 358.541 1370.23L362.484 1383.33L356.179 1385.23L346.361 1352.62L352.666 1350.72L356.148 1362.28C356.642 1360.6 357.406 1359.31 358.44 1358.4C359.484 1357.47 360.673 1356.81 362.005 1356.4Z" fill="white"/>
<path d="M413.877 1346.76L407.177 1346.84L407.103 1340.75L413.803 1340.67L413.877 1346.76ZM407.214 1349.86L413.914 1349.78L414.222 1375.05L407.522 1375.13L407.214 1349.86Z" fill="white"/>
<path d="M443.336 1351.65C445.918 1352.05 447.922 1353.05 449.348 1354.66C450.791 1356.26 451.273 1358.62 450.792 1361.75L448.21 1378.57L441.518 1377.55L443.851 1362.35C444.052 1361.04 444.031 1360 443.788 1359.25C443.343 1357.87 442.22 1357.04 440.417 1356.76C438.202 1356.42 436.537 1357.13 435.424 1358.88C434.844 1359.81 434.435 1361.04 434.198 1362.58L432.123 1376.11L425.615 1375.11L429.442 1350.17L435.744 1351.14L435.184 1354.78C436.222 1353.63 437.158 1352.83 437.993 1352.38C439.493 1351.58 441.273 1351.33 443.336 1351.65Z" fill="white"/>
<path d="M486.883 1367.14L488.928 1363.13C490.829 1364 492.193 1364.54 493.021 1364.75C494.338 1365.1 495.569 1365.06 496.713 1364.66C497.496 1364.38 498.247 1363.86 498.966 1363.1C499.391 1362.64 499.671 1362.28 499.804 1362.02L504.698 1364.52L489.408 1394.46L483.379 1391.38L493.924 1370.73L486.883 1367.14Z" fill="white"/>
<path d="M518.244 1413.95L542.931 1390.32L547.82 1395.43L538.408 1404.44L547.642 1414.08L557.055 1405.07L561.961 1410.2L537.274 1433.83L532.368 1428.71L543.388 1418.16L534.154 1408.51L523.134 1419.06L518.244 1413.95Z" fill="white"/>
<path d="M553.456 1449.94C554.442 1451.6 555.79 1452.53 557.501 1452.72C559.213 1452.91 561.159 1452.36 563.339 1451.06C565.52 1449.77 566.931 1448.33 567.573 1446.75C568.228 1445.16 568.063 1443.53 567.078 1441.87C566.093 1440.21 564.741 1439.27 563.021 1439.07C561.323 1438.87 559.384 1439.42 557.204 1440.71C555.023 1442.01 553.605 1443.45 552.95 1445.04C552.302 1446.65 552.471 1448.28 553.456 1449.94ZM566.874 1457.03C563.683 1458.92 560.407 1459.62 557.046 1459.13C553.698 1458.64 550.916 1456.52 548.702 1452.79C546.487 1449.05 545.966 1445.6 547.139 1442.42C548.325 1439.24 550.513 1436.7 553.704 1434.81C556.842 1432.95 560.105 1432.26 563.493 1432.73C566.881 1433.2 569.682 1435.3 571.896 1439.04C574.111 1442.77 574.612 1446.24 573.4 1449.44C572.187 1452.64 570.012 1455.17 566.874 1457.03Z" fill="white"/>
<path d="M586.058 1470.48L571.607 1475.29C570.244 1475.75 569.271 1476.25 568.69 1476.81C567.663 1477.78 567.429 1479.11 567.986 1480.78C568.7 1482.92 570.054 1484.1 572.048 1484.31C573.124 1484.41 574.431 1484.2 575.971 1483.69L589.013 1479.34L591.132 1485.7L567.159 1493.69L565.128 1487.6L568.515 1486.47C568.422 1486.43 568.153 1486.36 567.708 1486.25C567.263 1486.14 566.848 1485.97 566.462 1485.74C565.254 1485.05 564.335 1484.29 563.705 1483.48C563.079 1482.68 562.561 1481.66 562.15 1480.43C560.967 1476.88 561.446 1474.06 563.586 1471.98C564.764 1470.82 566.724 1469.79 569.466 1468.87L583.916 1464.05L586.058 1470.48Z" fill="white"/>
<path d="M596.965 1514.81C596.983 1514.93 596.989 1515.03 596.985 1515.11C596.998 1515.2 597.018 1515.39 597.044 1515.69L590.343 1516.65C590.329 1516.23 590.307 1515.85 590.277 1515.53C590.246 1515.21 590.217 1514.95 590.188 1514.75C589.812 1512.12 588.702 1510.47 586.859 1509.81C585.823 1509.45 584.303 1509.41 582.298 1509.69L570.341 1511.4L569.398 1504.82L594.415 1501.24L595.308 1507.48L590.947 1508.1C592.76 1508.88 594.025 1509.59 594.745 1510.25C595.945 1511.33 596.685 1512.85 596.965 1514.81Z" fill="white"/>
<rect y="1658" width="828" height="142" fill="black"/>
<path d="M198.197 1730.97H183.976C183.878 1730.97 183.784 1730.93 183.715 1730.86C183.645 1730.79 183.606 1730.7 183.606 1730.6V1717.69C183.626 1716.49 183.407 1715.29 182.962 1714.17C182.514 1713.05 181.848 1712.03 181 1711.16C180.153 1710.3 179.142 1709.62 178.027 1709.15C176.912 1708.68 175.715 1708.44 174.506 1708.44C173.296 1708.44 172.099 1708.68 170.984 1709.15C169.869 1709.62 168.858 1710.3 168.011 1711.16C167.164 1712.03 166.497 1713.05 166.05 1714.17C165.605 1715.29 165.385 1716.49 165.405 1717.69V1730.6C165.405 1730.7 165.366 1730.79 165.297 1730.86C165.227 1730.93 165.133 1730.97 165.035 1730.97H150.803C150.705 1730.97 150.611 1730.93 150.541 1730.86C150.472 1730.79 150.433 1730.7 150.433 1730.6V1705.82C150.433 1705.77 150.443 1705.72 150.463 1705.67C150.483 1705.63 150.512 1705.58 150.548 1705.55C150.549 1705.55 150.549 1705.55 150.549 1705.55C150.549 1705.55 150.549 1705.55 150.549 1705.55L174.243 1682.94C174.244 1682.94 174.244 1682.94 174.244 1682.94C174.313 1682.87 174.405 1682.83 174.5 1682.83C174.595 1682.83 174.686 1682.87 174.756 1682.94C174.756 1682.94 174.756 1682.94 174.756 1682.94L198.451 1705.55C198.487 1705.58 198.516 1705.63 198.536 1705.67C198.556 1705.72 198.566 1705.77 198.566 1705.82V1730.6C198.566 1730.7 198.527 1730.79 198.458 1730.86C198.389 1730.93 198.295 1730.97 198.197 1730.97Z" stroke="white" stroke-width="4"/>
<path d="M426.666 1703.45C426.666 1707.32 425.52 1711.1 423.372 1714.31C421.223 1717.53 418.17 1720.03 414.598 1721.51C411.026 1722.99 407.095 1723.38 403.302 1722.62C399.51 1721.87 396.027 1720.01 393.292 1717.27C390.558 1714.54 388.696 1711.06 387.942 1707.26C387.188 1703.47 387.575 1699.54 389.055 1695.97C390.534 1692.4 393.04 1689.34 396.255 1687.2C399.47 1685.05 403.25 1683.9 407.116 1683.9C412.301 1683.9 417.274 1685.96 420.94 1689.63C424.607 1693.29 426.666 1698.27 426.666 1703.45Z" stroke="white" stroke-width="9.2" stroke-linecap="round" stroke-linejoin="round"/>
<path d="M420.942 1717.28L433.567 1729.9" stroke="white" stroke-width="9.2" stroke-linecap="round" stroke-linejoin="round"/>
<circle cx="650.466" cy="1706.9" r="27.85" stroke="white" stroke-width="4.1"/>
</svg>
